<mxfile host="app.diagrams.net" modified="2024-05-29T16:19:07.556Z" agent="Mozilla/5.0 (Windows NT 10.0; Win64; x64) AppleWebKit/537.36 (KHTML, like Gecko) Chrome/125.0.0.0 Safari/537.36 Edg/125.0.0.0" etag="tz5espycBj5ry-1DFNuV" version="22.0.0" type="device">
  <diagram name="第 1 页" id="xYpy-MfsaMRQK1k4Ok_8">
    <mxGraphModel dx="2207" dy="2077" grid="1" gridSize="10" guides="1" tooltips="1" connect="1" arrows="1" fold="1" page="1" pageScale="1" pageWidth="827" pageHeight="1169" math="0" shadow="0">
      <root>
        <mxCell id="0" />
        <mxCell id="1" parent="0" />
        <mxCell id="InQHo25FBvMpRqRcAqbQ-57" style="edgeStyle=orthogonalEdgeStyle;rounded=0;orthogonalLoop=1;jettySize=auto;html=1;" edge="1" parent="1" source="InQHo25FBvMpRqRcAqbQ-26">
          <mxGeometry relative="1" as="geometry">
            <mxPoint x="680" y="300" as="targetPoint" />
          </mxGeometry>
        </mxCell>
        <mxCell id="InQHo25FBvMpRqRcAqbQ-26" value="protocol.h" style="rounded=1;whiteSpace=wrap;html=1;" vertex="1" parent="1">
          <mxGeometry x="245" y="280" width="120" height="40" as="geometry" />
        </mxCell>
        <mxCell id="InQHo25FBvMpRqRcAqbQ-2" value="GPIO" style="rounded=1;whiteSpace=wrap;html=1;" vertex="1" parent="1">
          <mxGeometry x="-100" y="550" width="120" height="60" as="geometry" />
        </mxCell>
        <mxCell id="InQHo25FBvMpRqRcAqbQ-3" value="SPI" style="rounded=1;whiteSpace=wrap;html=1;" vertex="1" parent="1">
          <mxGeometry x="60" y="550" width="120" height="60" as="geometry" />
        </mxCell>
        <mxCell id="InQHo25FBvMpRqRcAqbQ-6" value="" style="rounded=1;whiteSpace=wrap;html=1;fillColor=#dae8fc;strokeColor=#6c8ebf;" vertex="1" parent="1">
          <mxGeometry x="-160" y="380" width="400" height="110" as="geometry" />
        </mxCell>
        <mxCell id="InQHo25FBvMpRqRcAqbQ-9" value="" style="edgeStyle=orthogonalEdgeStyle;rounded=0;orthogonalLoop=1;jettySize=auto;html=1;entryX=0.204;entryY=0.976;entryDx=0;entryDy=0;entryPerimeter=0;" edge="1" parent="1" source="InQHo25FBvMpRqRcAqbQ-4" target="InQHo25FBvMpRqRcAqbQ-12">
          <mxGeometry relative="1" as="geometry">
            <mxPoint x="-40" y="270" as="targetPoint" />
          </mxGeometry>
        </mxCell>
        <mxCell id="InQHo25FBvMpRqRcAqbQ-4" value="LED&lt;br&gt;" style="rounded=1;whiteSpace=wrap;html=1;" vertex="1" parent="1">
          <mxGeometry x="-100" y="405" width="120" height="60" as="geometry" />
        </mxCell>
        <mxCell id="InQHo25FBvMpRqRcAqbQ-11" value="" style="edgeStyle=orthogonalEdgeStyle;rounded=0;orthogonalLoop=1;jettySize=auto;html=1;entryX=0.794;entryY=1.014;entryDx=0;entryDy=0;entryPerimeter=0;" edge="1" parent="1" source="InQHo25FBvMpRqRcAqbQ-5" target="InQHo25FBvMpRqRcAqbQ-12">
          <mxGeometry relative="1" as="geometry">
            <mxPoint x="120" y="270" as="targetPoint" />
          </mxGeometry>
        </mxCell>
        <mxCell id="InQHo25FBvMpRqRcAqbQ-5" value="MT6816" style="rounded=1;whiteSpace=wrap;html=1;" vertex="1" parent="1">
          <mxGeometry x="60" y="405" width="120" height="60" as="geometry" />
        </mxCell>
        <mxCell id="InQHo25FBvMpRqRcAqbQ-7" value="HardWare" style="text;html=1;strokeColor=none;fillColor=none;align=center;verticalAlign=middle;whiteSpace=wrap;rounded=0;fontSize=21;" vertex="1" parent="1">
          <mxGeometry x="-300" y="412.5" width="120" height="45" as="geometry" />
        </mxCell>
        <mxCell id="InQHo25FBvMpRqRcAqbQ-12" value="Board.c" style="rounded=1;whiteSpace=wrap;html=1;fillColor=#fff2cc;strokeColor=#d6b656;" vertex="1" parent="1">
          <mxGeometry x="-95" y="160" width="270" height="70" as="geometry" />
        </mxCell>
        <mxCell id="InQHo25FBvMpRqRcAqbQ-42" style="edgeStyle=orthogonalEdgeStyle;rounded=0;orthogonalLoop=1;jettySize=auto;html=1;jumpStyle=arc;jumpSize=27;strokeWidth=1;" edge="1" parent="1" source="InQHo25FBvMpRqRcAqbQ-14">
          <mxGeometry relative="1" as="geometry">
            <mxPoint x="880" y="150" as="targetPoint" />
            <Array as="points">
              <mxPoint x="330" y="90" />
              <mxPoint x="880" y="90" />
            </Array>
          </mxGeometry>
        </mxCell>
        <mxCell id="InQHo25FBvMpRqRcAqbQ-14" value="sensor.h" style="rounded=1;whiteSpace=wrap;html=1;" vertex="1" parent="1">
          <mxGeometry x="280" y="160" width="100" height="75" as="geometry" />
        </mxCell>
        <mxCell id="InQHo25FBvMpRqRcAqbQ-15" value="fifo.h" style="rounded=1;whiteSpace=wrap;html=1;fillColor=#d5e8d4;strokeColor=#82b366;" vertex="1" parent="1">
          <mxGeometry x="850" y="681.25" width="100" height="42.5" as="geometry" />
        </mxCell>
        <mxCell id="InQHo25FBvMpRqRcAqbQ-16" value="filter.h" style="rounded=1;whiteSpace=wrap;html=1;fillColor=#d5e8d4;strokeColor=#82b366;" vertex="1" parent="1">
          <mxGeometry x="690" y="682.5" width="100" height="40" as="geometry" />
        </mxCell>
        <mxCell id="InQHo25FBvMpRqRcAqbQ-17" value="pid.h" style="rounded=1;whiteSpace=wrap;html=1;fillColor=#d5e8d4;strokeColor=#82b366;" vertex="1" parent="1">
          <mxGeometry x="540" y="683.75" width="100" height="37.5" as="geometry" />
        </mxCell>
        <mxCell id="InQHo25FBvMpRqRcAqbQ-21" value="main.c" style="rounded=1;whiteSpace=wrap;html=1;" vertex="1" parent="1">
          <mxGeometry x="-50" y="-150" width="790" height="60" as="geometry" />
        </mxCell>
        <mxCell id="InQHo25FBvMpRqRcAqbQ-22" value="" style="endArrow=classic;html=1;rounded=0;" edge="1" parent="1">
          <mxGeometry width="50" height="50" relative="1" as="geometry">
            <mxPoint x="39.41" y="150" as="sourcePoint" />
            <mxPoint x="39.41" y="-80" as="targetPoint" />
            <Array as="points">
              <mxPoint x="39.41" y="40" />
            </Array>
          </mxGeometry>
        </mxCell>
        <mxCell id="InQHo25FBvMpRqRcAqbQ-24" value="motor.h" style="rounded=1;whiteSpace=wrap;html=1;" vertex="1" parent="1">
          <mxGeometry x="840" y="167.5" width="120" height="55" as="geometry" />
        </mxCell>
        <mxCell id="InQHo25FBvMpRqRcAqbQ-28" style="edgeStyle=orthogonalEdgeStyle;rounded=0;orthogonalLoop=1;jettySize=auto;html=1;" edge="1" parent="1" source="InQHo25FBvMpRqRcAqbQ-3" target="InQHo25FBvMpRqRcAqbQ-5">
          <mxGeometry relative="1" as="geometry" />
        </mxCell>
        <mxCell id="InQHo25FBvMpRqRcAqbQ-27" style="edgeStyle=orthogonalEdgeStyle;rounded=0;orthogonalLoop=1;jettySize=auto;html=1;entryX=0.5;entryY=1;entryDx=0;entryDy=0;" edge="1" parent="1" source="InQHo25FBvMpRqRcAqbQ-2" target="InQHo25FBvMpRqRcAqbQ-4">
          <mxGeometry relative="1" as="geometry" />
        </mxCell>
        <mxCell id="InQHo25FBvMpRqRcAqbQ-34" value="Uart.h" style="rounded=1;whiteSpace=wrap;html=1;" vertex="1" parent="1">
          <mxGeometry x="220" y="550" width="120" height="60" as="geometry" />
        </mxCell>
        <mxCell id="InQHo25FBvMpRqRcAqbQ-36" value="" style="endArrow=classic;startArrow=classic;html=1;rounded=0;" edge="1" parent="1">
          <mxGeometry width="50" height="50" relative="1" as="geometry">
            <mxPoint x="180" y="194.41" as="sourcePoint" />
            <mxPoint x="280" y="194.41" as="targetPoint" />
          </mxGeometry>
        </mxCell>
        <mxCell id="InQHo25FBvMpRqRcAqbQ-44" style="edgeStyle=orthogonalEdgeStyle;rounded=0;orthogonalLoop=1;jettySize=auto;html=1;jumpStyle=arc;jumpSize=13;" edge="1" parent="1" source="InQHo25FBvMpRqRcAqbQ-38">
          <mxGeometry relative="1" as="geometry">
            <mxPoint x="600" y="240" as="targetPoint" />
          </mxGeometry>
        </mxCell>
        <mxCell id="InQHo25FBvMpRqRcAqbQ-38" value="Tim" style="rounded=1;whiteSpace=wrap;html=1;" vertex="1" parent="1">
          <mxGeometry x="390" y="550" width="120" height="55" as="geometry" />
        </mxCell>
        <mxCell id="InQHo25FBvMpRqRcAqbQ-40" style="edgeStyle=orthogonalEdgeStyle;rounded=0;orthogonalLoop=1;jettySize=auto;html=1;jumpStyle=arc;jumpSize=21;" edge="1" parent="1" source="InQHo25FBvMpRqRcAqbQ-39">
          <mxGeometry relative="1" as="geometry">
            <mxPoint x="605" y="-80" as="targetPoint" />
          </mxGeometry>
        </mxCell>
        <mxCell id="InQHo25FBvMpRqRcAqbQ-39" value="ProjectManage.c" style="rounded=1;whiteSpace=wrap;html=1;fillColor=#fff2cc;strokeColor=#d6b656;" vertex="1" parent="1">
          <mxGeometry x="470" y="160" width="270" height="70" as="geometry" />
        </mxCell>
        <mxCell id="InQHo25FBvMpRqRcAqbQ-41" value="" style="endArrow=classic;startArrow=classic;html=1;rounded=0;" edge="1" parent="1">
          <mxGeometry width="50" height="50" relative="1" as="geometry">
            <mxPoint x="827" y="194.41" as="sourcePoint" />
            <mxPoint x="757" y="194.41" as="targetPoint" />
          </mxGeometry>
        </mxCell>
        <mxCell id="InQHo25FBvMpRqRcAqbQ-46" value="上位机" style="rounded=0;whiteSpace=wrap;html=1;" vertex="1" parent="1">
          <mxGeometry x="220" y="710" width="120" height="60" as="geometry" />
        </mxCell>
        <mxCell id="InQHo25FBvMpRqRcAqbQ-49" value="" style="endArrow=classic;startArrow=classic;html=1;rounded=0;" edge="1" parent="1">
          <mxGeometry width="50" height="50" relative="1" as="geometry">
            <mxPoint x="280" y="700" as="sourcePoint" />
            <mxPoint x="280" y="620" as="targetPoint" />
          </mxGeometry>
        </mxCell>
        <mxCell id="InQHo25FBvMpRqRcAqbQ-50" value="bytefifo.h" style="rounded=1;whiteSpace=wrap;html=1;fillColor=#e1d5e7;strokeColor=#9673a6;" vertex="1" parent="1">
          <mxGeometry x="260" y="380" width="90" height="110" as="geometry" />
        </mxCell>
        <mxCell id="InQHo25FBvMpRqRcAqbQ-52" value="" style="shape=flexArrow;endArrow=classic;startArrow=classic;html=1;rounded=0;" edge="1" parent="1">
          <mxGeometry width="100" height="100" relative="1" as="geometry">
            <mxPoint x="304.40999999999997" y="550" as="sourcePoint" />
            <mxPoint x="304.40999999999997" y="490" as="targetPoint" />
          </mxGeometry>
        </mxCell>
        <mxCell id="InQHo25FBvMpRqRcAqbQ-55" value="" style="endArrow=classic;html=1;rounded=0;startArrow=classic;startFill=1;" edge="1" parent="1">
          <mxGeometry width="50" height="50" relative="1" as="geometry">
            <mxPoint x="300" y="370" as="sourcePoint" />
            <mxPoint x="300" y="340" as="targetPoint" />
          </mxGeometry>
        </mxCell>
        <mxCell id="InQHo25FBvMpRqRcAqbQ-58" style="edgeStyle=orthogonalEdgeStyle;rounded=0;orthogonalLoop=1;jettySize=auto;html=1;" edge="1" parent="1" source="InQHo25FBvMpRqRcAqbQ-56">
          <mxGeometry relative="1" as="geometry">
            <mxPoint x="910" y="240" as="targetPoint" />
          </mxGeometry>
        </mxCell>
        <mxCell id="InQHo25FBvMpRqRcAqbQ-56" value="消息队列" style="rounded=1;whiteSpace=wrap;html=1;" vertex="1" parent="1">
          <mxGeometry x="690" y="270" width="120" height="60" as="geometry" />
        </mxCell>
        <mxCell id="InQHo25FBvMpRqRcAqbQ-59" value="消息队列" style="rounded=1;whiteSpace=wrap;html=1;" vertex="1" parent="1">
          <mxGeometry x="690" y="360" width="120" height="60" as="geometry" />
        </mxCell>
        <mxCell id="InQHo25FBvMpRqRcAqbQ-62" value="" style="endArrow=classic;html=1;rounded=0;jumpStyle=arc;jumpSize=13;" edge="1" parent="1">
          <mxGeometry width="50" height="50" relative="1" as="geometry">
            <mxPoint x="670" y="390" as="sourcePoint" />
            <mxPoint x="380" y="320" as="targetPoint" />
          </mxGeometry>
        </mxCell>
        <mxCell id="InQHo25FBvMpRqRcAqbQ-63" value="" style="endArrow=classic;html=1;rounded=0;" edge="1" parent="1">
          <mxGeometry width="50" height="50" relative="1" as="geometry">
            <mxPoint x="940" y="250" as="sourcePoint" />
            <mxPoint x="820" y="390" as="targetPoint" />
            <Array as="points">
              <mxPoint x="940" y="390" />
            </Array>
          </mxGeometry>
        </mxCell>
      </root>
    </mxGraphModel>
  </diagram>
</mxfile>
